# xmcd
#
# Track frame offsets:
#	150
#	18715
#	34085
#	49510
#	64238
#	78563
#	95198
#	112988
#	126983
#	147227
#
# Disc length: 2183 seconds
#
# Revision: 1
# Processed by: cddbd v1.5.2PL0 Copyright (c) Steve Scherf et al.
# Submitted via: audiograbber 1.83.01
#
DISCID=8d08850a
DTITLE=Lisa Colter and The Velvet Rose Band - Burning Roses
DYEAR=1995
DGENRE=Country
TTITLE0=Friday Night
TTITLE1=Burning Roses
TTITLE2=American Heart
TTITLE3=To dance with a Cowgirl
TTITLE4=Wake up
TTITLE5=Cajun Radio
TTITLE6=Wolves
TTITLE7=Roll on
TTITLE8=Unforgettable Summer
TTITLE9=Glas of beer
EXTD=
EXTT0=
EXTT1=
EXTT2=
EXTT3=
EXTT4=
EXTT5=
EXTT6=
EXTT7=
EXTT8=
EXTT9=
PLAYORDER=
